<?xml version="1.0" standalone="no"?>
<!DOCTYPE svg PUBLIC "-//W3C//DTD SVG 20010904//EN"
 "http://www.w3.org/TR/2001/REC-SVG-20010904/DTD/svg10.dtd">
<svg version="1.0" xmlns="http://www.w3.org/2000/svg"
 width="20.000000pt" height="20.000000pt" viewBox="0 0 20.000000 20.000000"
 preserveAspectRatio="xMidYMid meet">

<g transform="translate(0.000000,20.000000) scale(0.100000,-0.100000)"
fill="#000000" stroke="none">
<path d="M97 159 c-27 -14 -37 -25 -33 -36 5 -13 4 -14 -8 -4 -11 9 -20 10
-35 1 -25 -13 -26 -23 -6 -40 16 -13 30 -7 30 12 0 6 8 12 17 14 10 1 29 12
44 23 15 12 37 21 50 21 15 0 24 6 24 15 0 21 -37 18 -83 -6z m49 1 c-15 -5
-37 -17 -47 -26 -11 -9 -22 -14 -25 -11 -9 9 58 47 81 46 14 0 12 -3 -9 -9z
m-110 -60 c0 -20 -7 -25 -19 -13 -4 3 -2 12 4 20 15 17 15 17 15 -7z"/>
<path d="M120 108 c-19 -5 -42 -10 -50 -11 -10 -1 -15 -11 -15 -27 1 -29 52
-60 98 -60 27 0 28 1 25 52 -2 28 -7 52 -13 54 -5 1 -26 -2 -45 -8z m50 -43
c0 -29 -4 -45 -12 -45 -28 0 -88 22 -88 31 0 6 4 7 10 4 5 -3 10 -1 10 4 0 6
-5 11 -12 11 -36 0 33 32 85 39 4 1 7 -19 7 -44z"/>
</g>
</svg>
