<?xml version="1.0" standalone="no"?>
<!DOCTYPE svg PUBLIC "-//W3C//DTD SVG 20010904//EN"
 "http://www.w3.org/TR/2001/REC-SVG-20010904/DTD/svg10.dtd">
<svg version="1.0" xmlns="http://www.w3.org/2000/svg"
 width="64.000000pt" height="64.000000pt" viewBox="0 0 64.000000 64.000000"
 preserveAspectRatio="xMidYMid meet">

<g transform="translate(0.000000,64.000000) scale(0.100000,-0.100000)"
fill="#000000" stroke="none">
<path d="M445 570 c-78 -19 -205 -94 -247 -145 -26 -30 -31 -33 -53 -23 -19 9
-33 6 -72 -13 -76 -38 -86 -108 -20 -144 48 -26 79 -14 152 56 34 32 66 59 71
59 5 0 25 17 45 38 49 52 101 75 181 80 74 5 94 18 84 55 -10 40 -68 56 -141
37z m108 -43 c1 -5 -23 -10 -55 -11 -68 -3 -154 -42 -202 -92 -18 -19 -37 -34
-42 -34 -5 0 -36 -27 -68 -59 -70 -71 -88 -77 -124 -46 -32 29 -24 50 28 77
41 21 47 18 25 -16 -10 -15 -22 -23 -32 -19 -11 4 -14 1 -11 -13 7 -37 37 -26
103 37 36 34 65 68 65 76 0 7 7 13 16 13 8 0 30 11 47 24 63 48 138 76 195 74
29 -2 53 -7 55 -11z"/>
<path d="M378 354 c-64 -15 -167 -64 -187 -88 -7 -9 -11 -25 -8 -37 3 -12 0
-30 -6 -40 -17 -27 -1 -48 59 -81 68 -39 160 -66 247 -74 106 -9 107 -8 107
166 0 167 -2 170 -93 169 -34 0 -88 -7 -119 -15z m172 -150 l0 -137 -77 7
c-91 8 -182 37 -238 74 l-40 27 60 5 60 6 -47 22 c-27 13 -48 27 -48 32 0 13
58 46 115 65 49 16 133 31 188 34 l27 1 0 -136z"/>
<path d="M330 240 c0 -23 25 -27 33 -6 7 16 -1 26 -20 26 -7 0 -13 -9 -13 -20z"/>
</g>
</svg>
