<?xml version="1.0" standalone="no"?>
<!DOCTYPE svg PUBLIC "-//W3C//DTD SVG 20010904//EN"
 "http://www.w3.org/TR/2001/REC-SVG-20010904/DTD/svg10.dtd">
<svg version="1.0" xmlns="http://www.w3.org/2000/svg"
 width="20.000000pt" height="20.000000pt" viewBox="0 0 20.000000 20.000000"
 preserveAspectRatio="xMidYMid meet">

<g transform="translate(0.000000,20.000000) scale(0.100000,-0.100000)"
fill="#000000" stroke="none">
<path d="M10 143 c0 -5 31 -7 70 -5 46 2 70 0 70 -7 0 -6 7 -11 15 -11 8 0 17
-11 21 -25 7 -29 -13 -60 -30 -47 -6 5 -29 12 -51 15 -26 4 -35 3 -25 -3 8 -5
12 -12 9 -15 -9 -9 -40 6 -33 16 3 5 0 9 -5 9 -6 0 -11 -5 -11 -11 0 -8 -5 -8
-15 1 -9 8 -15 9 -15 2 0 -24 62 -37 91 -19 13 8 24 8 41 0 56 -25 80 38 32
82 -23 22 -37 25 -95 25 -38 0 -69 -3 -69 -7z"/>
<path d="M12 100 c0 -14 2 -19 5 -12 2 6 2 18 0 25 -3 6 -5 1 -5 -13z"/>
<path d="M155 100 c3 -5 8 -10 11 -10 2 0 4 5 4 10 0 6 -5 10 -11 10 -5 0 -7
-4 -4 -10z"/>
</g>
</svg>
