<?xml version="1.0" standalone="no"?>
<!DOCTYPE svg PUBLIC "-//W3C//DTD SVG 20010904//EN"
 "http://www.w3.org/TR/2001/REC-SVG-20010904/DTD/svg10.dtd">
<svg version="1.0" xmlns="http://www.w3.org/2000/svg"
 width="64.000000pt" height="64.000000pt" viewBox="0 0 64.000000 64.000000"
 preserveAspectRatio="xMidYMid meet">

<g transform="translate(0.000000,64.000000) scale(0.100000,-0.100000)"
fill="#000000" stroke="none">
<path d="M32 458 c-8 -8 -12 -53 -12 -137 l0 -124 46 -44 c48 -45 96 -57 122
-31 9 9 15 9 24 0 19 -19 73 -14 93 8 26 29 144 29 170 0 28 -31 76 -26 119
12 35 31 36 34 36 104 0 70 -20 141 -44 156 -6 4 -26 8 -43 8 -22 0 -33 5 -33
14 0 8 -7 22 -16 30 -13 14 -49 16 -233 16 -155 0 -220 -3 -229 -12z m438 -48
c0 -29 1 -30 50 -30 46 0 52 -3 62 -27 14 -35 23 -163 11 -163 -4 0 -13 10
-18 23 -15 34 -67 35 -93 3 -18 -24 -26 -26 -94 -26 -70 0 -76 2 -86 25 -6 14
-19 25 -28 25 -13 0 -11 -4 6 -18 18 -14 21 -25 17 -44 -12 -47 -72 -48 -83
-1 -5 20 -2 31 16 45 14 11 17 18 8 18 -8 0 -19 -5 -26 -12 -9 -9 -15 -9 -24
0 -7 7 -19 12 -27 12 -11 0 -9 -5 7 -16 29 -20 28 -50 -2 -69 -19 -13 -29 -14
-45 -5 -32 17 -26 68 9 83 10 5 9 6 -5 4 -11 -1 -24 -12 -30 -24 -8 -16 -15
-19 -28 -12 -14 9 -17 27 -17 124 l0 115 210 0 210 0 0 -30z m90 -195 c15 -19
6 -61 -16 -69 -27 -10 -53 3 -60 30 -8 30 11 54 41 54 12 0 28 -7 35 -15z"/>
<path d="M490 326 c0 -24 3 -26 45 -26 42 0 44 1 36 23 -6 16 -18 23 -45 25
-33 3 -36 1 -36 -22z"/>
<path d="M124 199 c-9 -15 11 -33 30 -26 9 4 13 13 10 22 -7 17 -30 20 -40 4z"/>
<path d="M235 200 c-4 -7 -3 -16 3 -22 14 -14 45 -2 40 15 -6 16 -34 21 -43 7z"/>
</g>
</svg>
