<?xml version="1.0" standalone="no"?>
<!DOCTYPE svg PUBLIC "-//W3C//DTD SVG 20010904//EN"
 "http://www.w3.org/TR/2001/REC-SVG-20010904/DTD/svg10.dtd">
<svg version="1.0" xmlns="http://www.w3.org/2000/svg"
 width="64.000000pt" height="64.000000pt" viewBox="0 0 64.000000 64.000000"
 preserveAspectRatio="xMidYMid meet">

<g transform="translate(0.000000,64.000000) scale(0.100000,-0.100000)"
fill="#000000" stroke="none">
<path d="M62 548 c-12 -6 -32 -26 -43 -45 -18 -28 -19 -38 -9 -67 6 -19 16
-36 22 -38 6 -2 1 -19 -12 -41 -19 -32 -20 -41 -10 -71 6 -19 16 -36 22 -38 6
-2 1 -19 -12 -41 -19 -32 -20 -41 -10 -71 6 -19 17 -37 25 -40 18 -6 45 3 45
15 0 20 19 7 44 -31 50 -76 115 -73 167 8 l28 44 24 -39 c33 -53 53 -67 92
-67 37 0 69 23 91 67 14 26 16 26 39 11 22 -14 25 -14 44 5 26 26 27 67 2 105
-18 28 -18 29 0 47 24 24 24 66 0 103 -18 28 -18 29 0 47 30 30 24 76 -15 115
-19 19 -42 34 -51 34 -17 0 -66 -46 -96 -90 l-15 -23 -30 44 c-56 84 -109 85
-167 3 -32 -45 -32 -45 -47 -24 -53 76 -87 97 -128 78z m523 -54 c9 -15 13
-33 10 -45 -7 -21 -7 -21 -30 1 l-24 22 -36 -51 c-49 -68 -66 -76 -99 -50 -15
11 -33 34 -41 50 -9 15 -24 33 -35 39 -17 9 -25 3 -60 -45 -54 -74 -76 -74
-130 0 -35 48 -43 54 -60 45 -11 -6 -20 -15 -20 -20 0 -6 -4 -10 -10 -10 -18
0 -11 56 10 75 29 26 61 12 95 -42 37 -58 60 -62 92 -13 60 90 77 91 133 14
27 -35 48 -54 58 -52 9 2 31 25 49 52 47 73 66 78 98 30z m4 -157 c9 -17 10
-30 3 -43 -9 -16 -10 -16 -21 4 -7 12 -16 22 -21 22 -5 0 -28 -25 -50 -55 -30
-41 -47 -55 -65 -55 -18 0 -35 14 -65 55 -22 30 -45 55 -49 55 -9 0 -38 -34
-74 -84 -30 -43 -60 -34 -107 29 -22 30 -45 55 -50 55 -5 0 -15 -9 -23 -20 -8
-11 -17 -17 -20 -13 -12 12 -7 41 11 63 27 34 61 20 97 -37 37 -58 60 -62 92
-13 60 90 77 91 133 14 27 -35 48 -54 58 -52 9 2 31 25 49 52 18 27 38 53 44
57 17 10 42 -4 58 -34z m-369 -21 c0 -11 -19 -15 -25 -6 -3 5 1 10 9 10 9 0
16 -2 16 -4z m230 0 c0 -11 -19 -15 -25 -6 -3 5 1 10 9 10 9 0 16 -2 16 -4z
m-125 -46 c3 -5 1 -10 -4 -10 -6 0 -11 5 -11 10 0 6 2 10 4 10 3 0 8 -4 11
-10z m-175 -105 c22 -30 47 -55 55 -55 8 0 22 12 32 26 43 61 66 84 84 84 11
0 35 -22 59 -56 27 -35 48 -54 58 -52 9 2 32 27 52 55 23 35 42 52 56 53 28 0
57 -44 49 -71 l-7 -21 -15 21 c-22 32 -37 26 -74 -31 -41 -64 -76 -75 -106
-33 -64 93 -84 100 -117 43 -51 -85 -82 -88 -132 -13 -38 57 -53 65 -74 40
-29 -36 -42 3 -14 43 25 36 50 27 94 -33z m294 -7 c-3 -5 -12 -4 -20 3 -19 16
-18 18 6 12 11 -3 17 -9 14 -15z m-224 8 c0 -11 -19 -15 -25 -6 -3 5 1 10 9
10 9 0 16 -2 16 -4z"/>
</g>
</svg>
