<?xml version="1.0" standalone="no"?>
<!DOCTYPE svg PUBLIC "-//W3C//DTD SVG 20010904//EN"
 "http://www.w3.org/TR/2001/REC-SVG-20010904/DTD/svg10.dtd">
<svg version="1.0" xmlns="http://www.w3.org/2000/svg"
 width="20.000000pt" height="20.000000pt" viewBox="0 0 20.000000 20.000000"
 preserveAspectRatio="xMidYMid meet">

<g transform="translate(0.000000,20.000000) scale(0.100000,-0.100000)"
fill="#000000" stroke="none">
<path d="M7 163 c-10 -18 -1 -128 10 -128 7 0 18 -6 24 -13 18 -17 38 -15 46
3 5 14 8 14 24 -1 17 -15 21 -15 52 -1 32 16 33 17 31 74 -1 32 -2 61 -3 66
-2 15 -39 7 -46 -10 -6 -17 -7 -17 -19 0 -7 9 -20 17 -29 17 -9 0 -20 -8 -26
-17 -9 -17 -10 -17 -16 0 -7 17 -40 24 -48 10z m43 -18 c12 -14 15 -14 32 2
17 16 20 16 35 0 16 -15 18 -15 35 0 14 13 21 14 30 5 9 -9 8 -12 -4 -12 -8 0
-21 -7 -28 -15 -12 -14 -15 -14 -31 1 -18 16 -20 16 -38 0 -16 -15 -19 -15
-31 -1 -7 8 -19 15 -27 15 -8 0 -11 5 -8 10 9 14 21 12 35 -5z m15 -48 c4 5 5
1 1 -7 -4 -8 2 -4 13 10 19 22 22 23 31 8 11 -19 38 -18 50 1 4 8 13 10 19 7
16 -10 14 -26 -3 -20 -7 3 -16 -2 -19 -10 -8 -21 -33 -20 -47 2 -10 16 -10 16
-20 0 -14 -22 -39 -23 -47 -2 -3 8 -12 13 -19 10 -15 -6 -19 6 -7 17 3 4 14 0
23 -8 9 -8 20 -12 25 -8z m-19 -42 c8 -20 24 -19 40 3 13 16 15 16 28 0 17
-22 25 -23 41 -1 7 9 17 13 23 9 17 -10 15 -26 -2 -20 -7 3 -16 -2 -19 -10 -8
-21 -27 -20 -43 1 -13 17 -15 17 -28 1 -16 -22 -35 -23 -43 -2 -3 8 -12 13
-19 10 -14 -6 -19 6 -7 17 11 11 23 8 29 -8z"/>
</g>
</svg>
